<mxfile host="app.diagrams.net" modified="2023-01-19T04:47:52.563Z" agent="5.0 (Macintosh; Intel Mac OS X 10_15_7) AppleWebKit/537.36 (KHTML, like Gecko) Chrome/108.0.0.0 Safari/537.36" version="20.8.5" etag="T7y_KgYKVIUcVjeOEM-b" type="github">
  <diagram id="z4SMryj6aZXQh9l6PkRs" name="Page-1">
    <mxGraphModel dx="1306" dy="811" grid="1" gridSize="10" guides="1" tooltips="1" connect="1" arrows="1" fold="1" page="1" pageScale="1" pageWidth="1100" pageHeight="850" math="0" shadow="0">
      <root>
        <mxCell id="0" />
        <mxCell id="1" parent="0" />
        <mxCell id="oHbXa07qNS96JezRPe4R-6" value="Complete Serverless Architecture" style="sketch=0;outlineConnect=0;gradientColor=none;html=1;whiteSpace=wrap;fontSize=12;fontStyle=0;shape=mxgraph.aws4.group;grIcon=mxgraph.aws4.group_aws_cloud;strokeColor=#858B94;fillColor=none;verticalAlign=top;align=left;spacingLeft=30;fontColor=#858B94;dashed=0;" vertex="1" parent="1">
          <mxGeometry x="210" y="200" width="670" height="440" as="geometry" />
        </mxCell>
        <mxCell id="oHbXa07qNS96JezRPe4R-28" style="edgeStyle=orthogonalEdgeStyle;rounded=0;orthogonalLoop=1;jettySize=auto;html=1;" edge="1" parent="1" source="oHbXa07qNS96JezRPe4R-12" target="oHbXa07qNS96JezRPe4R-27">
          <mxGeometry relative="1" as="geometry" />
        </mxCell>
        <mxCell id="oHbXa07qNS96JezRPe4R-12" value="Client" style="sketch=0;outlineConnect=0;fontColor=#232F3E;gradientColor=none;strokeColor=#232F3E;fillColor=#ffffff;dashed=0;verticalLabelPosition=bottom;verticalAlign=top;align=center;html=1;fontSize=12;fontStyle=0;aspect=fixed;shape=mxgraph.aws4.resourceIcon;resIcon=mxgraph.aws4.client;" vertex="1" parent="1">
          <mxGeometry x="110" y="250" width="60" height="60" as="geometry" />
        </mxCell>
        <mxCell id="oHbXa07qNS96JezRPe4R-15" style="edgeStyle=orthogonalEdgeStyle;rounded=0;orthogonalLoop=1;jettySize=auto;html=1;" edge="1" parent="1" source="oHbXa07qNS96JezRPe4R-14" target="oHbXa07qNS96JezRPe4R-12">
          <mxGeometry relative="1" as="geometry" />
        </mxCell>
        <mxCell id="oHbXa07qNS96JezRPe4R-14" value="Users" style="sketch=0;outlineConnect=0;fontColor=#232F3E;gradientColor=none;strokeColor=#232F3E;fillColor=#ffffff;dashed=0;verticalLabelPosition=bottom;verticalAlign=top;align=center;html=1;fontSize=12;fontStyle=0;aspect=fixed;shape=mxgraph.aws4.resourceIcon;resIcon=mxgraph.aws4.users;" vertex="1" parent="1">
          <mxGeometry x="10" y="250" width="60" height="60" as="geometry" />
        </mxCell>
        <mxCell id="oHbXa07qNS96JezRPe4R-19" style="edgeStyle=orthogonalEdgeStyle;rounded=0;orthogonalLoop=1;jettySize=auto;html=1;" edge="1" parent="1" source="oHbXa07qNS96JezRPe4R-16" target="oHbXa07qNS96JezRPe4R-18">
          <mxGeometry relative="1" as="geometry" />
        </mxCell>
        <mxCell id="oHbXa07qNS96JezRPe4R-16" value="Amazon Cloudfront" style="sketch=0;outlineConnect=0;fontColor=#232F3E;gradientColor=none;strokeColor=#ffffff;fillColor=#232F3E;dashed=0;verticalLabelPosition=middle;verticalAlign=bottom;align=center;html=1;whiteSpace=wrap;fontSize=10;fontStyle=1;spacing=3;shape=mxgraph.aws4.productIcon;prIcon=mxgraph.aws4.cloudfront;" vertex="1" parent="1">
          <mxGeometry x="520" y="240" width="80" height="110" as="geometry" />
        </mxCell>
        <mxCell id="oHbXa07qNS96JezRPe4R-25" style="edgeStyle=orthogonalEdgeStyle;rounded=0;orthogonalLoop=1;jettySize=auto;html=1;" edge="1" parent="1" source="oHbXa07qNS96JezRPe4R-18" target="oHbXa07qNS96JezRPe4R-20">
          <mxGeometry relative="1" as="geometry" />
        </mxCell>
        <mxCell id="oHbXa07qNS96JezRPe4R-18" value="Amazon API Gateway" style="sketch=0;outlineConnect=0;fontColor=#232F3E;gradientColor=none;strokeColor=#ffffff;fillColor=#232F3E;dashed=0;verticalLabelPosition=middle;verticalAlign=bottom;align=center;html=1;whiteSpace=wrap;fontSize=10;fontStyle=1;spacing=3;shape=mxgraph.aws4.productIcon;prIcon=mxgraph.aws4.api_gateway;" vertex="1" parent="1">
          <mxGeometry x="750" y="240" width="80" height="110" as="geometry" />
        </mxCell>
        <mxCell id="oHbXa07qNS96JezRPe4R-24" style="edgeStyle=orthogonalEdgeStyle;rounded=0;orthogonalLoop=1;jettySize=auto;html=1;" edge="1" parent="1" source="oHbXa07qNS96JezRPe4R-20" target="oHbXa07qNS96JezRPe4R-23">
          <mxGeometry relative="1" as="geometry" />
        </mxCell>
        <mxCell id="oHbXa07qNS96JezRPe4R-20" value="AWS Lambda" style="sketch=0;outlineConnect=0;fontColor=#232F3E;gradientColor=none;strokeColor=#ffffff;fillColor=#232F3E;dashed=0;verticalLabelPosition=middle;verticalAlign=bottom;align=center;html=1;whiteSpace=wrap;fontSize=10;fontStyle=1;spacing=3;shape=mxgraph.aws4.productIcon;prIcon=mxgraph.aws4.lambda;" vertex="1" parent="1">
          <mxGeometry x="750" y="495" width="80" height="100" as="geometry" />
        </mxCell>
        <mxCell id="oHbXa07qNS96JezRPe4R-23" value="Amazon DynamoDB" style="sketch=0;outlineConnect=0;fontColor=#232F3E;gradientColor=none;strokeColor=#ffffff;fillColor=#232F3E;dashed=0;verticalLabelPosition=middle;verticalAlign=bottom;align=center;html=1;whiteSpace=wrap;fontSize=10;fontStyle=1;spacing=3;shape=mxgraph.aws4.productIcon;prIcon=mxgraph.aws4.dynamodb;" vertex="1" parent="1">
          <mxGeometry x="520" y="490" width="80" height="110" as="geometry" />
        </mxCell>
        <mxCell id="oHbXa07qNS96JezRPe4R-29" style="edgeStyle=orthogonalEdgeStyle;rounded=0;orthogonalLoop=1;jettySize=auto;html=1;" edge="1" parent="1" source="oHbXa07qNS96JezRPe4R-27" target="oHbXa07qNS96JezRPe4R-16">
          <mxGeometry relative="1" as="geometry" />
        </mxCell>
        <mxCell id="oHbXa07qNS96JezRPe4R-27" value="Amazon Cognito" style="sketch=0;outlineConnect=0;fontColor=#232F3E;gradientColor=none;strokeColor=#ffffff;fillColor=#232F3E;dashed=0;verticalLabelPosition=middle;verticalAlign=bottom;align=center;html=1;whiteSpace=wrap;fontSize=10;fontStyle=1;spacing=3;shape=mxgraph.aws4.productIcon;prIcon=mxgraph.aws4.cognito;" vertex="1" parent="1">
          <mxGeometry x="300" y="240" width="80" height="110" as="geometry" />
        </mxCell>
      </root>
    </mxGraphModel>
  </diagram>
</mxfile>
